<svg xmlns="http://www.w3.org/2000/svg" viewBox="0 0 320 140" role="img" aria-label="Autonomous agent preview">
  <defs>
    <linearGradient id="bg" x1="0" y1="0" x2="1" y2="1">
      <stop offset="0" stop-color="#3b2aae"/>
      <stop offset="0.55" stop-color="#f64f9e"/>
      <stop offset="1" stop-color="#ffb35c"/>
    </linearGradient>
    <radialGradient id="face" cx="48%" cy="42%" r="58%">
      <stop offset="0" stop-color="#fff7ff"/>
      <stop offset="0.52" stop-color="#ddd0ff"/>
      <stop offset="1" stop-color="#5b21b6"/>
    </radialGradient>
    <filter id="shadow" x="-30%" y="-30%" width="160%" height="160%">
      <feDropShadow dx="0" dy="12" stdDeviation="8" flood-color="#2a114f" flood-opacity="0.42"/>
    </filter>
  </defs>
  <rect width="320" height="140" fill="url(#bg)"/>
  <circle cx="250" cy="78" r="31" fill="#fff085" opacity="0.88"/>
  <circle cx="250" cy="46" r="11" fill="#ffffff" opacity="0.58"/>
  <circle cx="64" cy="31" r="7" fill="#ffffff" opacity="0.55"/>
  <circle cx="286" cy="35" r="4" fill="#ffffff" opacity="0.45"/>
  <path d="M70 103 C73 52 109 30 156 31 C204 32 228 61 214 99 C198 120 107 125 70 103Z" fill="#5521a6" filter="url(#shadow)" opacity="0.95"/>
  <ellipse cx="143" cy="57" rx="58" ry="20" fill="url(#face)" opacity="0.96"/>
  <ellipse cx="143" cy="55" rx="47" ry="13" fill="#ffffff" opacity="0.76"/>
  <path d="M87 101 H202" stroke="#ffffff" stroke-width="6" stroke-linecap="round" opacity="0.18"/>
  <path d="M104 99 H119 M139 99 H154 M174 99 H189" stroke="#ffffff" stroke-width="5" stroke-linecap="round" opacity="0.62"/>
  <path d="M86 28 H118 M235 108 H277" stroke="#ffffff" stroke-width="2" stroke-linecap="round" opacity="0.32"/>
</svg>
